<?xml version="1.0" standalone="no"?><!DOCTYPE svg PUBLIC "-//W3C//DTD SVG 1.1//EN" "http://www.w3.org/Graphics/SVG/1.1/DTD/svg11.dtd"><svg t="1662708586379" class="icon" viewBox="0 0 1024 1024" version="1.1" xmlns="http://www.w3.org/2000/svg" p-id="2241" xmlns:xlink="http://www.w3.org/1999/xlink" width="200" height="200"><path d="M439.3 345.7L602.4 227.5l87.1-16.3 31.6 43.2-15.9 36.9-69.4 54.4L601.6 327l-78.4 31.1-56.8 10.6-27.1-15.4" fill="#46C373" p-id="2242"></path><path d="M616.8 394.5l-13.3-79.4-123.4 107-248.5 233-32.2 75.7 29.9 121.3 106.7 23 240.6-336.3 66.6-96.7" fill="#D354A0" p-id="2243"></path><path d="M736.6 247.6c-49.1 19.5-92 55.3-119.8 104.4 0.7 26.7 5.9 55.2 27.8 99.3 6.5-31.9 14.4-59.9 29.2-82.8 8-12.4 27.2-5.4 25.7 9.3-3.4 33.1-0.9 68.1 21.3 107 10-3.1 21.1-1.3 29.6 4.8 0.7-43.3 5.7-90.3 17.3-133.8 8.4-37.7-2-78.6-31.1-108.2zM768.7 124.4c-13.5-7.2-30.2-2.3-37.6 11.1L685.6 217c17.5 5.2 34.1 14.5 48.1 27.9l46.1-82.1c7.8-13.7 2.7-31-11.1-38.4z" fill="#46C373" p-id="2244"></path><path d="M720.6 490.1l0.5-5c-22.4-39.1-24.9-74.1-21.5-107.3 1.5-14.7-17.7-21.7-25.7-9.3-14.8 22.9-22.7 50.9-29.2 82.8-6.3-12.7-11.3-24.2-15.1-34.7-43.4 61.5-128.2 162.7-256.6 236.1-45.8 26.1-81.5 85.4-81.5 135.6 0 32.9 10.3 62.6 27.8 87 3.4 0.4 6.8 0.7 10.3 0.9 263.9 14.8 369.8-309.8 391-386.1z" fill="#D354A0" p-id="2245"></path><path d="M797.1 136.9c-3.3-11.3-10.8-20.5-21.1-26.1-20.7-11.1-46.9-3.4-58.3 17.1L678 199.4c-42.4-8.3-88.1 3.8-120.9 36.6-0.4 0.4-0.8 0.9-1.2 1.3-24.3 30.7-98 109.2-147.1 104.2-7.2-0.7-13.8 3.6-16.1 10.4-2.3 6.8 0.5 14.3 6.6 18 24.6 14.9 52 26.2 86.7 22.5-36.2 53-111.3 146-228.6 213.1-45.7 26.1-80.1 83.6-80.1 133.8 0 40.3 15.9 78 44.8 106.2 28 27.4 65.9 43.8 106.6 46.1 6.1 0.3 12.2 0.5 18.2 0.5 57.3 0 111.1-15.5 160.3-46.1 44.5-27.7 85.4-68 121.5-119.8 51.8-74.1 83-155.8 98.6-204.7 3.8 4.9 7.8 9.8 12.3 14.7 3 3.3 7.2 5.2 11.5 5.2 1.9 0 3.9-0.4 5.7-1.1 6-2.4 9.9-8.4 9.6-14.8-2.3-58.2 3.5-117 16.4-165.5 0.1-0.2 0.1-0.4 0.2-0.7 9.1-41.9-2.1-84.9-30.1-116.8l40.6-72.1c5.5-10.4 6.9-22.2 3.6-33.5zM603.5 708.5c-74.8 107.1-166.7 158.3-273.1 152.3-69.8-3.9-122.4-56.2-122.4-121.6 0-38.7 29-86.7 64.6-107.1C421.2 547.2 505 422.2 530.1 380.4c20.7-8.7 43.7-22.5 69.5-42.7 0.2-0.2 0.5-0.4 1.1-0.1 0.6 0.3 0.6 0.7 0.6 1-0.7 35.8 4 68.2 29.4 119.5 2.9 5.9 9.2 9.3 15.7 8.4 6.5-0.9 11.8-5.7 13.1-12.2 4.8-23.9 11.5-50.9 24.1-72.7-2.4 29.3-0.6 65.3 21.4 106.3-10.8 39.3-41.9 135.4-101.5 220.6z m149.4-356.2c-10 38-16 81.8-17.5 126.8-22.5-38.5-23.4-71.5-20.5-99.7 1.4-13.9-6.5-26.3-19.7-30.9-3.3-1.2-6.7-1.7-10-1.7-9.6 0-18.7 4.8-24.3 13.4-8.6 13.3-14.9 28-19.8 42.9-8.7-26.6-9.3-45.6-9-63.9 0.2-12.4-6.5-23.6-17.6-29.1-11.1-5.5-24-4.2-33.8 3.4-55.7 43.5-93.2 52.6-122.6 47.7 20.2-9.3 42-24.5 65.3-45.4 29.8-26.7 51.9-53.8 55.9-58.7 40.3-39.6 105.4-39.4 145.5 0.6 25.1 24.8 35.5 60.2 28.1 94.6z m13.6-197.1l-37.2 66.2c-6.8-4.8-14-9-21.5-12.4l36.7-66.1c3.3-6 10.9-8.2 16.9-5 3 1.6 5.2 4.3 6.1 7.6 1.1 3.3 0.7 6.7-1 9.7z" fill="" p-id="2246"></path><path d="M569.7 657.6c-7.1-4.7-16.6-2.7-21.3 4.4-43.4 66-95.3 109.3-154.2 128.5-8.1 2.6-12.5 11.3-9.8 19.4 2.1 6.5 8.1 10.6 14.6 10.6 1.6 0 3.2-0.2 4.8-0.8 65.7-21.4 123-68.8 170.4-140.8 4.5-7.1 2.6-16.6-4.5-21.3zM588.9 606.7c-4 0-8 1.6-10.9 4.5s-4.5 6.8-4.5 10.9c0 4.1 1.6 8 4.5 10.9 2.9 2.9 6.8 4.5 10.9 4.5 4.1 0 8-1.6 10.9-4.5 2.9-2.9 4.5-6.8 4.5-10.9 0-4-1.6-8-4.5-10.9-2.9-2.8-6.8-4.5-10.9-4.5z" fill="" p-id="2247"></path></svg>