<?xml version="1.0" standalone="no"?><!DOCTYPE svg PUBLIC "-//W3C//DTD SVG 1.1//EN" "http://www.w3.org/Graphics/SVG/1.1/DTD/svg11.dtd"><svg t="1662708581697" class="icon" viewBox="0 0 1024 1024" version="1.1" xmlns="http://www.w3.org/2000/svg" p-id="2089" xmlns:xlink="http://www.w3.org/1999/xlink" width="200" height="200"><path d="M692 181.6c52.7 2.5 120.1 63.8 187.1 33.7 67-30.1 105.3 71.9 53.6 86.6-90 25.6-26.8 123.8-54.9 160.1-62.8 81.1-249.9 250-354.9 312.2-23.8 14.1-136.3 86.5-172.7 66.3-47.1-26.1-113.9-154.7-200.6-385.9 69.3-63.4 362.5-281.4 542.4-273z m0 0" fill="#D2BC8F" p-id="2090"></path><path d="M940.7 298.7c-8.9-27.2-37.3-51.6-74.6-34.8-66.9 30.1-134.5-31.2-187.1-33.7-163.9-7.7-421.8 172.5-518.8 252.7-3.5-9.2-7-18.6-10.6-28.1 69.3-63.6 362.6-281.6 542.5-273.1 52.7 2.5 120.1 63.8 187.1 33.7 63-28.4 100.6 60.6 61.5 83.3z m-58.8 75c0.3 33.6 10.5 69.5-4.2 88.5-1.7 2.2-3.6 4.5-5.4 6.8-1.9-31.4-10.3-69.6 9.6-95.3z m0 0" fill="#E4D6BB" p-id="2091"></path><path d="M866.7 220c4.2-1.2 8.3-2.7 12.3-4.6 2.8-0.9 5.5-1.8 8-3.1 61.9-19 95.2 75.5 45.6 89.6-90 25.6-26.8 123.8-54.9 160.1-62.8 81.1-249.9 250-354.9 312.2-23.8 14.2-136.4 86.5-172.7 66.3-47.1-26-114-154.7-200.7-385.8 1.6-1.4 3.3-2.9 5-4.6C229 640 287.4 746.7 329.9 770.2c36.5 20.2 149-52.2 172.7-66.3 105-62.1 281.1-230.2 344-311.1 26.8-34.6-49.1-140.3 20.1-172.8z m0 0" fill="#B99E67" p-id="2092"></path><path d="M358.7 825c9.2 5.1 38.8-2.9 77.7-22.2 20.5-10.2 40.1-21.2 64.2-35.9 1.9-1.1 4-2.4 7.5-4.6 2.6-1.7 4.4-2.6 5.8-3.5 98.2-58.1 284.9-223.9 349.9-307.8 4.2-5.5 5.1-16.4 3.1-39.6-0.1-1.6-1.2-12.5-1.4-15.8-5.2-61-52.2-152.3-106.4-174.4 0.5 0.2-22.2-9.2-28.3-11.6-17.4-6.8-29.4-10.1-39.5-10.6-134.7-6.4-383 137.7-520.7 260.4C253.1 679 317.9 802.4 358.7 825z m334.1-661.1c14.9 0.7 30.1 4.9 50.8 13 6.5 2.5 29.5 12 28.8 11.7 45.8 18.6 38.7 34.1 65.7 22 39.5-17.8 102.2 109.5 65.9 119.8-33.9 9.6-7.1 16.2-3.1 62.5 0.3 3.2 1.3 14 1.5 15.7 2.9 32.3 1.5 49.2-10.4 64.5-67.7 87.4-257.8 256.1-359.8 316.6-1.3 0.8-2.9 1.7-5.4 3.3-3.4 2.1-5.6 3.4-7.5 4.6-24.9 15.2-45.3 26.7-66.9 37.4-50.3 24.8-86.7 34.7-110.6 21.3C289.2 827 221.6 697.1 133 461l-4.2-11.3 8.8-8c47-43 142.1-112.5 232.7-165.7 126-74.1 237.6-116.1 322.5-112.1z m0 0" fill="#333333" p-id="2093"></path><path d="M477 799.7c-66.7 38.5-185.4 110.6-304.9-14.9-119.5-125.5-112.3-260.2-22.5-330 89.7-70 231-98.8 336.5 39.5 105.6 138.3 57.6 266.8-9.1 305.4z" fill="#F4EAD5" p-id="2094"></path><path d="M319.1 870.5c-57.2 0-110.3-25.3-157.9-75.3C95.6 726.3 62.5 649 67.8 577.5c4-53.5 29.7-101.2 72.5-134.5 27.5-21.4 58.6-38.3 89.9-48.7 35.4-11.8 70.7-15.5 104.8-11.1 29.8 3.8 58.2 13.9 84.7 29.9 28.5 17.2 54.8 41.5 78.2 72.2 28.1 36.8 47.3 75 57.2 113.7 8.9 34.7 10.1 68.7 3.6 101.2-9.9 49.4-37.7 91.5-74.3 112.6l-3.6 2.1c-34.7 20.1-82.3 47.6-137.6 54.3-8 0.8-16.1 1.3-24.1 1.3z m-11.5-459.1c-50 0-103.1 19.5-148.9 55.2-36.5 28.5-57.7 67.6-61 113.1-4.7 62.9 25.6 132.1 85.2 194.7 109.2 114.8 213.8 54.3 283 14.3l3.6-2.1c29.3-16.9 51.7-51.5 59.9-92.5 12.1-60.5-7.5-128.3-55.2-190.8-40.5-53-88.6-83.5-142.9-90.5-7.8-0.9-15.7-1.4-23.7-1.4z" fill="#333333" p-id="2095"></path><path d="M348.3 566c25.5-12.8 41.1-25.1 46.6-37 8.3-17.7 4.1-37.2-9.2-43.4-13.3-6.3-30.8 3.2-39.1 20.9-5.5 11.9-4.9 31.7 1.7 59.5z m-95.6 52.5c-11.4-26.2-22.9-42.3-34.5-48.5-17.3-9.2-36.9-6.1-43.8 6.8-6.9 12.9 1.5 31 18.9 40.2 11.4 6.2 31.2 6.6 59.4 1.5z m99.4 57.1c-11.3 26.3-15.3 45.7-11.9 58.3 5.1 19 20.7 31.2 34.9 27.4 14.2-3.8 21.6-22.2 16.6-41.2-3.5-12.6-16.7-27.4-39.6-44.5z m-61.6-1.7c-33.7 4.4-56 12.1-67.1 23.3-16.6 16.7-20.3 39.9-8.1 52.1 12.2 12.2 35.5 8.4 52-8.1 11.2-11.3 18.9-33.7 23.2-67.3z m-2.3-144.8c-2.8-20-7.5-33.6-14.1-40.6-9.8-10.6-23.6-13.9-30.6-7.3-7 6.5-4.7 20.5 5.1 31.1 6.6 7 19.8 12.6 39.6 16.8z m113.5 80.1c19 7 33.2 9.1 42.5 6.6 14-3.7 23.3-14.4 20.8-23.6-2.5-9.3-15.9-13.8-29.9-10-9.2 2.5-20.4 11.5-33.4 27z m18.5 66.6c4.9 19.6 11 32.6 18.3 39 11 9.5 24.9 11.4 31.2 4.1 6.3-7.2 2.6-20.8-8.4-30.3-7.2-6.5-20.9-10.7-41.1-12.8z m0 0M306.5 609c-8.5 4.9-11.4 15.7-6.5 24.2s15.8 11.4 24.2 6.5c8.5-4.9 11.4-15.8 6.5-24.2-4.9-8.5-15.7-11.4-24.2-6.5z m0 0" fill="#CCB584" p-id="2096"></path></svg>